[center][b][SIZE=16pt][color=blue]Porco Rosso[/color][/SIZE][/b]

[img]http://filmup.leonardo.it/posters/loc/500/porcorosso.jpg[/img]

[b][color=green]~~Scheda~~[/color][/b]

« Piuttosto che diventare un fascista, meglio essere un maiale »
	
(Porco Rosso al suo ex commilitone Ferrarin)

Porco Rosso (Kurenai no buta), è un film d'animazione giapponese del regista Hayao Miyazaki, proiettato per la prima volta in Giappone nel 1992. In Italia è stato distribuito il 12 novembre 2010.

Titolo originale:  	Kurenai no buta
Nazione:  	Giappone
Anno:  	1992
Genere:  	Animazione
Durata:  	94'
Regia:  	Hayao Miyazaki
Sito ufficiale:  	 

Cast (voci):  	Shûichirô Moriyama, Tokiko Kato, Sanshi Katsura, Tsunehiko Kamijô, Sanshi Katsura, Akemi Okamura
Produzione:  	Japan Airlines, Nibariki, Nippon Television Network Corporation, Studio Ghibli, TNNG, Toho Company, Tokuma Shoten
Distribuzione:  	Lucky Red
Data di uscita:  	12 Novembre 2010 (cinema)



[hr]
[b][color=green]~~Trama~~[/color][/b]

[spoiler=Trama]
Marco Pagot è un asso dell'aviazione militare italiana che, in seguito ad un misterioso incidente durante la Prima guerra mondiale, al quale sopravvive miracolosamente, assume per magia l'aspetto di un maiale antropomorfo. Abbandona dunque l'aeronautica e la vita mondana (compreso l'amore per Gina, la bella cantante di un night club allestito su un'isoletta dell'Adriatico e frequentato da contrabbandieri) e si ritira sulla costa dalmata, guadagnandosi da vivere con le taglie poste sui pirati dell'aria che combatte con il suo monoplano dipinto di rosso (da cui il soprannome "Porco Rosso"). La sua abilità lo rende ben presto un ostacolo non indifferente per i Pirati dell'Aria, che per contrastarlo formano un'alleanza e ingaggiano un altro asso dell'aviazione, l'americano (Donald Curtis). Con l'aiuto di Donald, che si rivela essere un rivale all'altezza di Marco, i pirati riescono a depredare una lussuosa nave da crociera, quindi Donald raggiunge e affronta Marco che sta dirigendosi a Milano per far riparare il suo aereo. Durante la battaglia, alla quale peraltro Marco non appare interessato, il suo aereo ha un'avaria, venendo crivellato di colpi dal suo avversario che vedendolo precipitare e ritrovando un pezzo del suo aereo lo crede morto e se ne va. In realtà Marco sopravvive alla battaglia, e con quanto rimane del suo aereo raggiunge la Piccolo SPA di Milano per farlo riparare e potenziare in vista della rivincita contro Curtis.

Dal momento che i tre figli del signor Piccolo sono emigrati in America in cerca di lavoro, come pure tutti gli altri uomini e operai che lavoravano nella ditta, la ristrutturazione e progettazione del nuovo aereo vengono affidate alla giovane Fio, nipote del signor Piccolo. Marco all'inizio si mostra recalcitrante, ma di fronte alla determinazione e all'esperienza della ragazzina si lascia convincere, anche se per riuscire a rimettere apposto l'aereo è costretto a indebitarsi.

Durante la sosta a Milano Marco incontra il suo amico ed ex-camerata Arturo Ferrarin, ora maggiore della Regia Aeronautica, che dopo aver tentato invano di convincerlo a rientrare in aviazione lo informa che i fascisti lo stanno cercando. Sfuggito agli squadroni punitivi Marco lascia Milano con il suo aereo appena riparato assieme a Fio, che lo convince a portarla con sé.

Nel mentre Curtis, donnaiolo e narcisista, cerca di conquistare Gina, dicendole anche che ad Hollywood sono interessati a lei come aspirante attrice, ma la donna risponde che anni addietro ha scommesso con sé stessa di aspettare una certa persona nel suo giardino privato anche per tutta la vita, e che se quella persona dovesse un giorno presentarsi a lei alla luce del sole allora lei lo avrebbe amato.

Come Porco e Gina ritornano sull'isola-rifugio di Marco, però, i due vengono assaltati dai pirati, ansiosi di prendersi la loro rivincita nei confronti del Porcellastro. Fio però li trattiene, deridendoli e rimproverandoli per aver svenduto il loro orgoglio di aviatori affidandosi ad uno straniero, e convince Curtis a misurarsi in un duello ad armi pari con Marco per l'onore degli aviatori e dell'Italia: se Marco vincerà Curtis pagherà i conti in sospeso di Porco Rosso con la ditta Piccolo, se invece perderà Fio sposerà Curtis.

Il duello richiama una grande folla ed è senza esclusione di colpi, ma al momento decisivo la mitragliatrice di Marco si inceppa e quella di Curtis si scarica. I due a quel punto decidono di concludere lo scontro a suon di pugni, e alla fine a vincere è Marco.

L'arrivo improvviso della regia aeronautica costringe i pirati e gli altri spettatori ad andarsene in tutta fretta; Marco affida Fio a Gina perché la riproti "nel mondo della gente rispettabile", mentre lui e Curtis (che sembra aver notato qualcosa nella faccia del suo avversario) si offrono di fare da esca agli inseguitori per permettere agli altri di scappare.

Passano gli anni. Gina e Fio diventano grandi amiche, e superano insieme il fascismo e la Guerra. L'hotel Adriano gestito da Gina continua ad essere una rinomata meta turistica, frequentato anche dagli ormai anziani Pirati dell'Aria; Curtis, ora diventato un attore, ricorda con nostalgia quell'estate sull'Adriatico. E su come si sia conclusa la scommessa di Gina, Fio risponde agli spettatori che "è un segreto soltanto nostro".
[/spoiler]
[hr]
[b][color=green]~~Extra~~[/color][/b]	
Storyline e trailer originale
[hr]
[b][color=green]~~Trailer~~[/color][/b]	
[youtube]SrERkmE6adg[/youtube]
[hr]
[b][color=green]~~Cover~~[/color][/b]	
[hr]

[hr]

[b][color=green]~~Scheda tecnica del Rip~~[/color][/b]
[code]

H:\condivisa\Anime\Porco Rosso DVD9\VTS_01_1.VOB
   General
      Complete name : H:\condivisa\Anime\Porco Rosso DVD9\VTS_01_1.VOB
      Format : MPEG-PS
      File size : 1 024 MiB
      Duration : 23mn 21s
      Overall bit rate : 6 128 Kbps
   Video #224
      ID : 224 (0xE0)
      Format : MPEG Video
      Format version : Version 2
      Format profile : Main@Main
      Format settings, BVOP : Yes
      Format settings, Matrix : Custom
      Format settings, GOP : M=3, N=15
      Duration : 23mn 21s
      Bit rate mode : Variable
      Bit rate : 5 622 Kbps
      Nominal bit rate : 8 700 Kbps
      Width : 720 pixels
      Height : 576 pixels
      Display aspect ratio : 16:9
      Frame rate : 25.000 fps
      Standard : PAL
      Color space : YUV
      Chroma subsampling : 4:2:0
      Bit depth : 8 bits
      Scan type : Interlaced
      Scan order : Top Field First
      Compression mode : Lossy
      Bits/(Pixel*Frame) : 0.542
      Stream size : 939 MiB (92%)
   Audio #189-128
      ID : 189 (0xBD)-128 (0x80)
      Format : AC-3
      Format/Info : Audio Coding 3
      Format profile : Dolby Digital
      Mode extension : CM (complete main)
      Muxing mode : DVD-Video
      Duration : 23mn 21s
      Bit rate mode : Constant
      Bit rate : 192 Kbps
      Channel(s) : 2 channels
      Channel positions : Front: L R
      Sampling rate : 48.0 KHz
      Bit depth : 16 bits
      Compression mode : Lossy
      Stream size : 32.1 MiB (3%)
   Audio #189-129
      ID : 189 (0xBD)-129 (0x81)
      Format : AC-3
      Format/Info : Audio Coding 3
      Format profile : Dolby Digital
      Mode extension : CM (complete main)
      Muxing mode : DVD-Video
      Duration : 23mn 21s
      Bit rate mode : Constant
      Bit rate : 192 Kbps
      Channel(s) : 2 channels
      Channel positions : Front: L R
      Sampling rate : 48.0 KHz
      Bit depth : 16 bits
      Compression mode : Lossy
      Stream size : 32.1 MiB (3%)
   Text #189-32
      ID : 189 (0xBD)-32 (0x20)
      Format : RLE
      Format/Info : Run-length encoding
      Muxing mode : DVD-Video
      Duration : 23mn 19s
      Delay relative to video : 1s 960ms
   Text #189-33
      ID : 189 (0xBD)-33 (0x21)
      Format : RLE
      Format/Info : Run-length encoding
      Muxing mode : DVD-Video
      Duration : 23mn 19s
      Delay relative to video : 1s 960ms
   Text #189-34
      ID : 189 (0xBD)-34 (0x22)
      Format : RLE
      Format/Info : Run-length encoding
      Muxing mode : DVD-Video
      Delay relative to video : 2s 0ms
[/code]
[hr]
[b][color=green]~~Note~~[/color][/b]
Non sono l'autore del rip e non mi voglio prendere nessun merito al riguardo.
Banda max 370 kbytes 24/24 7/7 :D

[hr]

Visita il nostro sito http://www.nautilus-bt.org ( Visit our site http://www.nautilus-bt.org )

[/center]